<?xml version="1.0" encoding="UTF-8"?>
<svg width="28.8mm" height="28.9mm" version="1.1" viewBox="0 0 28.8 28.9" xmlns="http://www.w3.org/2000/svg">
 <g fill="#fff" stroke="#000" stroke-linecap="round" stroke-linejoin="round" stroke-width=".265">
  <path d="m14.3 2.98-1.66 9.78-9.8 1.65 9.8 1.66 1.65 9.73 1.64-9.75 9.74-1.63-9.72-1.66z" style="paint-order:markers fill stroke"/>
  <path d="m14.4 3.96c-5.75-1e-6 -10.4 4.69-10.4 10.4s4.69 10.4 10.4 10.4c5.75-1e-6 10.4-4.69 10.4-10.4s-4.69-10.4-10.4-10.4zm0 1.86c4.74 0 8.59 3.82 8.59 8.59 0 4.74-3.82 8.59-8.59 8.59-4.74 0-8.59-3.82-8.59-8.59 1.1e-6 -4.74 3.82-8.59 8.59-8.59z" color="#000000" color-rendering="auto" dominant-baseline="auto" image-rendering="auto" shape-rendering="auto" solid-color="#000000"/>
  <path d="m16.9 2.68a2.55 2.55 0 0 1-2.55 2.55 2.55 2.55 0 0 1-2.55-2.55 2.55 2.55 0 0 1 2.55-2.55 2.55 2.55 0 0 1 2.55 2.55z" style="paint-order:markers fill stroke"/>
  <path d="m5.23 14.4a2.55 2.55 0 0 1-2.55 2.55 2.55 2.55 0 0 1-2.55-2.55 2.55 2.55 0 0 1 2.55-2.55 2.55 2.55 0 0 1 2.55 2.55z" style="paint-order:markers fill stroke"/>
  <path d="m28.6 14.4a2.55 2.55 0 0 1-2.55 2.55 2.55 2.55 0 0 1-2.55-2.55 2.55 2.55 0 0 1 2.55-2.55 2.55 2.55 0 0 1 2.55 2.55z" style="paint-order:markers fill stroke"/>
  <path d="m16.9 26.2a2.55 2.55 0 0 1-2.55 2.55 2.55 2.55 0 0 1-2.55-2.55 2.55 2.55 0 0 1 2.55-2.55 2.55 2.55 0 0 1 2.55 2.55z" style="paint-order:markers fill stroke"/>
 </g>
 <path d="m14.4 3.28q-0.158 0.229-0.347 0.344-0.188 0.113-0.407 0.113-0.299 0.0024-0.502-0.166-0.203-0.171-0.203-0.435 0-0.294 0.291-0.54l0.5-0.347q0.176-0.121 0.254-0.234 0.0804-0.116 0.0804-0.229 0-0.133-0.111-0.224-0.108-0.0904-0.279-0.0904-0.158 0-0.236 0.0603-0.0779 0.0578-0.0779 0.173 0 0.0427 0.0126 0.123 0.01 0.0804 0.01 0.111 0 0.123-0.0553 0.186-0.0553 0.0603-0.166 0.0603-0.103 0-0.168-0.0879-0.0628-0.0879-0.0628-0.191 0-0.286 0.193-0.467 0.196-0.181 0.543-0.181 0.221 0 0.374 0.0728 0.153 0.0703 0.502 0.352 0.276 0.226 0.409 0.304 0.133 0.0754 0.274 0.0754 0.133 0 0.224-0.0854 0.0929-0.0854 0.0904-0.229 0-0.128-0.0904-0.214-0.0879-0.0879-0.234-0.0879-0.141 0-0.281 0.0829l-0.103-0.188q0.211-0.098 0.394-0.098 0.208-0.0024 0.379 0.153 0.171 0.156 0.171 0.407 0 0.246-0.158 0.417-0.156 0.168-0.384 0.168-0.153 0-0.309-0.0929t-0.445-0.364q-0.1-0.0954-0.181-0.163v0.0276q0 0.126-0.0578 0.241-0.0553 0.113-0.131 0.183-0.0754 0.0678-0.575 0.422-0.274 0.196-0.274 0.357 0 0.163 0.118 0.244 0.121 0.0804 0.359 0.0804t0.389-0.123q0.153-0.126 0.171-0.342h0.188q0.0176 0.214 0.163 0.339 0.146 0.126 0.364 0.126 0.224 0 0.374-0.133 0.151-0.133 0.151-0.322 0-0.121-0.0528-0.234l0.198-0.0804q0.0929 0.201 0.0929 0.397 0 0.327-0.201 0.555-0.198 0.229-0.512 0.229-0.208 0-0.377-0.113-0.166-0.116-0.291-0.344z" dominant-baseline="auto"/>
 <path d="m25.2 13.7q-0.149 0-0.24 0.0782-0.0886 0.0756-0.0886 0.19 0 0.159 0.154 0.24 0.154 0.0782 0.464 0.0782h0.925v0.373h-1.2q-0.172 0-0.258 0.0704-0.086 0.0678-0.086 0.206 0 0.133 0.125 0.219 0.125 0.0834 0.318 0.0834h0.623v0.229h-0.529q-0.404 0-0.607-0.141-0.201-0.141-0.201-0.425 0-0.326 0.274-0.521-0.271-0.175-0.271-0.485 0-0.232 0.162-0.399 0.164-0.169 0.417-0.167h2.71v0.37z" dominant-baseline="auto"/>
 <path d="m14.6 26.6q-0.349 0.33-0.8 0.33-0.367 0-0.592-0.18-0.222-0.183-0.222-0.426 0.0022-0.222 0.201-0.379 0.201-0.157 0.538-0.157 0.264 0 0.517 0.136 0.253 0.133 0.386 0.337 0.206-0.253 0.206-0.618 0-0.321-0.143-0.482-0.14-0.161-0.421-0.161-0.218 0-0.318 0.0889-0.101 0.0866-0.0842 0.262h-0.192q-7e-3 -0.176-0.0842-0.262-0.0772-0.0889-0.227-0.0889-0.323 0-0.398 0.351h-0.199q0.0094-0.311 0.173-0.524 0.164-0.213 0.417-0.213 0.122 0 0.225 0.0655 0.105 0.0655 0.19 0.197 0.0983-0.131 0.227-0.197 0.131-0.0655 0.295-0.0655 0.213 0 0.37 0.096t0.257 0.286h0.372v-0.381h0.206v0.381h0.524v0.206h-1.02q0.0538 0.194 0.0538 0.428 0 0.475-0.304 0.821 0.129 0.218 0.215 0.543 0.0889 0.325 0.0889 0.594 0 0.194-0.0585 0.29-0.0562 0.0983-0.171 0.0983-0.112 0-0.169-0.0725-0.0538-0.0726-0.0538-0.218 0-0.117 0.0796-0.286 0.0702-0.15 0.0702-0.297 0-0.211-0.152-0.503zm-0.117-0.19q-0.152-0.204-0.349-0.307t-0.44-0.103q-0.215 0-0.353 0.0936-0.136 0.0936-0.136 0.215 0 0.147 0.164 0.241 0.166 0.0936 0.407 0.0936 0.452 0 0.707-0.234z" dominant-baseline="auto" style="font-feature-settings:normal;font-variant-alternates:normal;font-variant-caps:normal;font-variant-ligatures:normal;font-variant-numeric:normal;font-variant-position:normal;paint-order:stroke fill markers;shape-padding:0;text-decoration-color:#000000;text-decoration-line:none;text-decoration-style:solid;text-indent:0;text-orientation:mixed;text-transform:none;white-space:normal"/>
 <path d="m0.932 13.8h2.7q0.442-3e-3 0.718 0.218 0.279 0.221 0.279 0.572 0 0.3-0.2 0.5-0.197 0.197-0.497 0.197-0.27-3e-3 -0.466-0.212-0.197-0.212-0.2-0.463 0-0.33 0.245-0.503-0.245 0-0.545 0.0787-0.3 0.0818-0.445 0.0818h-1.74zm2.57 0.8q0 0.182 0.127 0.312 0.13 0.127 0.309 0.127 0.185 0 0.315-0.13 0.133-0.13 0.133-0.309 3e-3 -0.179-0.13-0.309t-0.318-0.127q-0.179 0-0.309 0.13-0.127 0.127-0.127 0.306z" dominant-baseline="auto" style="font-feature-settings:normal;font-variant-alternates:normal;font-variant-caps:normal;font-variant-ligatures:normal;font-variant-numeric:normal;font-variant-position:normal;paint-order:stroke fill markers;shape-padding:0;text-decoration-color:#000000;text-decoration-line:none;text-decoration-style:solid;text-indent:0;text-orientation:mixed;text-transform:none;white-space:normal"/>
 <path d="m14.4 10.3c-2.3-1e-6 -4.17 1.87-4.17 4.17s1.87 4.17 4.17 4.17 4.17-1.87 4.17-4.17-1.87-4.17-4.17-4.17z" color="#000000" color-rendering="auto" dominant-baseline="auto" fill="#fff" image-rendering="auto" shape-rendering="auto" solid-color="#000000" stroke="#000" stroke-linecap="round" stroke-linejoin="round" stroke-width=".265" style="font-feature-settings:normal;font-variant-alternates:normal;font-variant-caps:normal;font-variant-ligatures:normal;font-variant-numeric:normal;font-variant-position:normal;isolation:auto;mix-blend-mode:normal;paint-order:markers fill stroke;shape-padding:0;text-decoration-color:#000000;text-decoration-line:none;text-decoration-style:solid;text-indent:0;text-orientation:mixed;text-transform:none;white-space:normal"/>
 <path d="m11.7 14.1c0 0.455 0.331 0.797 0.914 0.797 0.57 0 0.822-0.346 0.894-0.58h0.0218c0.0773 0.234 0.336 0.58 0.847 0.58 0.543 0 0.894-0.373 0.894-0.936 0-0.304-0.114-0.563-0.316-0.738l-0.284 0.247c0.129 0.124 0.212 0.289 0.212 0.491 0 0.368-0.207 0.58-0.543 0.58-0.356 0-0.62-0.296-0.62-0.776v-0.15h-0.387v0.161c0 0.459-0.264 0.765-0.697 0.765-0.331 0-0.543-0.166-0.543-0.445 0-0.63 1.25-0.687 1.26-1.53 0.274 0.264 0.62 0.486 1 0.486 0.459 0 0.681-0.217 0.681-0.595 0-0.113-0.0353-0.207-0.0975-0.279h0.677c-0.0723 0.037-0.202 0.202-0.202 0.476 0 0.393 0.284 0.76 0.817 0.76 0.413 0 0.78-0.309 0.78-0.8 0-0.481-0.346-0.77-0.869-0.77h-2.16v0.334h0.476c0.129 0.0521 0.187 0.146 0.187 0.269 0 0.161-0.104 0.269-0.336 0.269-0.6 0-0.837-0.423-1.17-0.687-0.114-0.113-0.279-0.192-0.486-0.207h-5e-3c-5e-3 -5e-3 -0.0101-5e-3 -0.0101-5e-3h-0.0671c-0.46 0-0.775 0.316-0.775 0.714 0 0.0874 0.0202 0.19 0.0555 0.284h0.378c-0.037-0.084-0.0521-0.192-0.0521-0.259 0-0.212 0.145-0.388 0.393-0.388 0.264 0 0.403 0.181 0.403 0.393 0 0.62-1.27 0.697-1.27 1.54zm4.06-1.48c0-0.259 0.175-0.445 0.434-0.445 0.244 0 0.466 0.151 0.466 0.44 0 0.279-0.181 0.471-0.429 0.471-0.301 0-0.471-0.192-0.471-0.466z"/>
 <path d="m14.7 17.6c-0.0302-0.227-0.103-0.455-0.212-0.65 0.171-0.213 0.286-0.471 0.316-0.744h0.946v-0.279h-0.378v-0.652h-0.314v0.652h-0.259c-0.0471-0.413-0.299-0.714-0.718-0.714-0.346 0-0.518 0.187-0.59 0.368-0.0924-0.176-0.321-0.363-0.64-0.363-0.388 0-0.692 0.259-0.692 0.672 0 0.187 0.0672 0.361 0.197 0.518l0.257-0.197c-0.0824-0.0992-0.113-0.197-0.113-0.316 0-0.237 0.165-0.376 0.371-0.376 0.237 0 0.455 0.185 0.455 0.506v0.0773h0.329v-0.0824c0-0.309 0.151-0.501 0.413-0.501 0.259 0 0.408 0.222 0.408 0.548 0 0.217-0.0672 0.429-0.185 0.603-0.207-0.227-0.486-0.376-0.827-0.376-0.46 0-0.776 0.227-0.776 0.563 0 0.326 0.274 0.59 0.812 0.59 0.279 0 0.548-0.104 0.76-0.274 0.0622 0.129 0.104 0.279 0.124 0.429zm-1.2-0.455c-0.326 0-0.471-0.139-0.471-0.294 0-0.165 0.145-0.269 0.435-0.269 0.257 0 0.476 0.124 0.635 0.321-0.166 0.15-0.378 0.242-0.6 0.242z"/>
</svg>
