<?xml version="1.0" encoding="UTF-8"?>
<svg width="101mm" height="104mm" version="1.1" viewBox="0 0 358 369" xmlns="http://www.w3.org/2000/svg">
 <g transform="translate(-22.2 -22.9)">
  <path d="m93 23.9c-2.56 0.0502-5.18 0.716-7.49 2.18-2.73 1.72-4.65 4.29-5.74 7.12-1.08 2.8-1.33 5.74-1.02 8.52 0.617 5.52 3.28 10.1 5.93 14.1 11.2 16.7 27.7 28.5 44.8 38.1-4.37 27.5 3.73 56.5 21.5 77.9-13.1 4.64-24.6 12.8-34.7 21.9-11.8 10.7-21.9 22.7-32.7 33.5-0.121 0.016-0.24 7e-3 -0.361 0.0234-17.1 2.34-32.3 10.4-46.6 18.3-3.41 1.87-7.51 4.05-10.5 8.1-1.49 2.05-2.61 4.54-2.85 7.34-0.245 2.85 0.453 5.84 2.4 8.28 1.75 2.19 4.16 3.49 6.67 4.03 2.47 0.535 4.9 0.313 7.09-0.307 4.34-1.23 7.55-3.84 10.3-6.01 12.8-10.1 25.5-20.5 37.3-32 13.6-1.3 27.7 1.2 42.1 3.31 13.3 1.95 27.6 3.35 41.3 0.0879 1.32 13.3 5.43 26.1 10.7 38.1 6.1 14 13.4 27.1 19.5 40.5-6.9 16.9-11.4 35.2-11.1 53.7 0.073 3.55 0.299 7.58 2.07 11.5h-2e-3c0.89 1.99 2.17 3.91 3.95 5.48 1.79 1.59 4.03 2.76 6.59 3.14 2.76 0.414 5.46-0.167 7.77-1.36 2.29-1.19 4.11-2.92 5.5-4.85 2.75-3.84 3.69-8.21 4.24-12.1 2.75-19.3-2.86-38.4-10.4-55.6 5.52-12.9 12.4-25.4 18.4-38.7 5.65-12.6 10.2-26.1 11.4-40.2 13.6 2.66 27.6 2.06 40.9 0.691 15-1.53 29.8-3.64 44.1-2.73 9.47 9.31 19.2 19.2 31.7 25.7 3.02 1.56 6.63 3.16 10.9 3.15 2.14-3e-3 4.37-0.438 6.45-1.53 2.1-1.1 3.94-2.83 5.04-5.16 1.19-2.5 1.3-5.22 0.693-7.68-0.602-2.43-1.87-4.5-3.4-6.17-3.03-3.31-6.83-4.94-10.1-6.29-12-4.99-24.8-8.61-37.9-9.81-21-20.5-43.9-39.7-69.9-54 7.96-11.9 12.7-25.5 15.7-39 3.28-14.6 5.1-29.2 8.28-43.2 0.348-0.215 0.71-0.395 1.06-0.613 16.2-10.2 30.7-24.2 39-41.8 1.11-2.35 2.33-5.13 2.54-8.46 0.105-1.67-0.0623-3.45-0.682-5.21v-2e-3c-0.624-1.77-1.69-3.46-3.28-4.77-1.79-1.48-3.93-2.22-6.05-2.38-2.1-0.163-4.08 0.236-5.84 0.932-3.5 1.38-5.98 3.78-8.02 5.9-13.6 14.2-21.2 32.7-25.8 51.3-11.8 6.95-24.8 12.6-37.3 19.7-12.1 6.86-24 15.5-32.2 27.2-8.42-10.5-19.2-18.7-30.6-25.3-12.3-7.17-25.1-12.8-37.2-19.3-2.3-21.1-11.8-41.2-26.8-56.3-2.83-2.84-6.14-5.83-10.5-7.61-2.19-0.892-4.62-1.44-7.17-1.39zm0.156 8c1.27-0.0249 2.65 0.26 4 0.807 2.71 1.1 5.29 3.27 7.85 5.85 12.3 12.3 20.6 28.5 23.7 45.6-14.7-8.7-28.2-19.2-37.4-32.8-2.38-3.53-4.23-7.07-4.61-10.5-0.189-1.69-0.0135-3.36 0.525-4.75 0.53-1.37 1.47-2.56 2.55-3.23 0.916-0.577 2.13-0.921 3.39-0.945zm221 4.81c0.644 0.05 1.24 0.297 1.58 0.58 0.308 0.254 0.63 0.706 0.822 1.25v2e-3c0.197 0.56 0.291 1.27 0.242 2.05-0.0993 1.58-0.796 3.45-1.79 5.55-6.42 13.6-17.2 24.9-29.6 33.9 4.47-14.6 11.1-28.3 21.3-38.9 1.81-1.88 3.53-3.35 5.18-4 0.814-0.321 1.62-0.452 2.29-0.4zm-41.2 60.6c-2.4 12.2-4.25 24.4-6.89 36.1-3.01 13.4-7.6 26.4-15.1 37.2-5.26-2.54-10.8-4.79-17.1-5.18-4.34-0.269-9.04 0.46-13.1 2.83-0.157-1.5-0.303-3.03-0.588-4.4-1.71-8.24-4.99-16.1-9.44-23.2 7.2-11.4 18.7-20.2 31.1-27.2 9.98-5.66 20.7-10.5 31.2-16.1zm-135 0.596c11.4 5.89 22.9 11.2 33.6 17.4 11.7 6.84 22.6 15.1 30.3 25.7-3.81 7.45-6.1 15.6-6.97 23.8-0.323 3.04-0.511 6.44 0.228 9.88-2.26-2.2-4.91-3.48-7.3-4.33-8.9-3.16-18.4-3-27.3-1.07-17.2-19.1-25.6-45.9-22.5-71.4zm68.9 51.3c2.7 5.17 4.76 10.7 5.95 16.4 0.714 3.44 0.968 6.63 0.17 9.14-0.392 1.23-1.05 2.31-1.84 3.04-0.763 0.71-1.76 1.15-2.59 1.2-0.85 0.0553-1.93-0.271-2.79-0.91-0.89-0.659-1.68-1.7-2.21-2.93-1.08-2.5-1.13-5.81-0.742-9.42 0.604-5.68 1.96-11.3 4.05-16.5zm27 24.3c4.16 0.258 8.32 1.77 12.5 3.63-3.22 3.51-6.73 6.64-10.8 8.53-2.98 1.4-6.11 2.1-8.78 1.65-1.32-0.221-2.56-0.729-3.52-1.44-0.94-0.704-1.67-1.68-2-2.65-0.388-1.11-0.36-2.55 0.104-3.81 0.472-1.28 1.41-2.53 2.62-3.47 2.45-1.9 6.12-2.68 9.86-2.45zm-60.6 2.44c4.07 0.0587 8.06 0.689 11.8 2.01 2.02 0.715 3.65 1.59 4.62 2.63 0.475 0.509 0.803 1.07 0.957 1.56 0.148 0.474 0.143 0.963 0.0527 1.27-0.088 0.299-0.337 0.701-0.701 1.01-0.377 0.324-0.929 0.615-1.57 0.791-1.31 0.358-3.09 0.249-5.08-0.205-5.79-1.32-11.2-4.6-16.1-8.75 2-0.229 4.01-0.345 5.99-0.316zm-15.4 2.47c6.44 6.39 14.2 12.2 23.7 14.4 2.62 0.599 5.72 1.01 8.97 0.125 1.64-0.446 3.26-1.22 4.68-2.44 1.43-1.23 2.58-2.86 3.16-4.83 0.34-1.16 0.4-2.31 0.324-3.44 0.681 0.802 1.38 1.6 2.27 2.25 2.25 1.67 5.06 2.66 8.07 2.47 1.68-0.109 3.21-0.648 4.62-1.38 0.0305 0.0946 0.0121 0.193 0.0449 0.287 0.921 2.65 2.64 4.83 4.77 6.42 2.11 1.58 4.54 2.52 6.99 2.93 4.88 0.816 9.54-0.446 13.5-2.3 6.04-2.83 10.9-7.25 15-12.1 22.8 12.4 43.2 29 62.4 47-12.3 0.14-24.3 1.83-36.2 3.03-13.5 1.38-27.1 1.86-39.8-0.818-0.208-8.47-1.93-17.2-6.74-24.6-2.34-3.63-5.57-7.2-10.1-9.12-2.29-0.965-4.85-1.46-7.49-1.23-2.66 0.238-5.28 1.22-7.44 3.04-2 1.69-3.36 3.9-4.09 6.27-0.191 0.617-0.229 1.24-0.336 1.86-0.164-1.03-0.362-2.07-0.766-3.08-0.998-2.49-2.74-4.73-5.19-6.21-2.24-1.35-4.76-1.88-7.21-1.75-2.43 0.126-4.7 0.887-6.67 2.02-3.92 2.25-6.49 5.76-8.32 9.19-4 7.49-5.23 15.9-5.21 23.9-12.4 3.22-26 2.09-39.6 0.119-11.3-1.65-23-3.83-35-3.9 8.8-9.22 17.2-18.6 26.4-26.9 10.4-9.46 22.3-17.3 35.2-21.2zm58.9 24.6c1.16-0.104 2.46 0.119 3.68 0.633 2.47 1.04 4.71 3.3 6.51 6.07 3.37 5.22 4.97 11.6 5.41 18.2-6.44-2.26-12.4-5.6-16.6-10.4-2.01-2.32-3.46-4.87-3.84-7.32-0.188-1.22-0.115-2.43 0.205-3.46 0.315-1.02 0.909-1.93 1.61-2.52 0.754-0.637 1.85-1.08 2.99-1.19zm-25.3 0.148c0.983-0.0508 1.96 0.189 2.67 0.615 0.772 0.465 1.49 1.33 1.89 2.33 0.41 1.02 0.552 2.29 0.392 3.57-0.324 2.59-1.89 5.32-4.05 7.86-3.58 4.19-8.26 7.47-13.4 9.85 0.274-6.16 1.44-12.1 4.16-17.2 1.41-2.64 3.19-4.84 5.24-6.01 1.01-0.579 2.11-0.919 3.11-0.971zm12.7 8.46c0.743 4.45 3.06 8.15 5.65 11.1 5.99 6.91 14.2 11.1 22.5 13.6-0.894 13.2-5.22 26.2-10.8 38.7-4.84 10.8-10.4 21.5-15.5 32.5-5.55-11.6-11.5-22.8-16.5-34.2-5.27-12.1-9.17-24.7-10.2-37.4 7.24-2.82 14-7.14 19.2-13.2 2.54-2.98 4.88-6.67 5.69-11.1zm135 26.2c8.43 1.68 16.7 4.28 24.8 7.62 3.06 1.27 5.67 2.58 7.25 4.3 0.776 0.847 1.31 1.81 1.53 2.69h-2e-3c0.21 0.848 0.121 1.74-0.154 2.32-0.257 0.541-0.823 1.13-1.53 1.5-0.734 0.385-1.7 0.61-2.74 0.611-2.11 3e-3 -4.58-0.916-7.2-2.27-8-4.11-15-10.3-21.9-16.8zm-266 0.174c-8.78 7.84-18 15.3-27.3 22.7-2.71 2.14-5.15 3.93-7.5 4.59-1.15 0.326-2.29 0.384-3.22 0.184-0.893-0.193-1.69-0.684-2.11-1.21-0.463-0.579-0.768-1.6-0.682-2.6 0.0901-1.05 0.566-2.24 1.35-3.31 1.6-2.2 4.49-3.95 7.85-5.8 10.4-5.7 20.8-11.1 31.6-14.5zm133 89.9c5.39 14.3 8.71 29.1 6.66 43.5-0.483 3.39-1.3 6.43-2.83 8.57-0.755 1.05-1.7 1.9-2.67 2.4-0.953 0.494-2.04 0.685-2.91 0.555-0.808-0.121-1.72-0.555-2.47-1.22-0.769-0.681-1.45-1.64-1.95-2.76-1.01-2.26-1.3-5.18-1.37-8.43v-2e-3c-0.298-14.4 2.7-28.8 7.53-42.6z" color="#000000" color-rendering="auto" fill="#fff" fill-rule="evenodd" image-rendering="auto" shape-rendering="auto" solid-color="#000000" stroke="#000" stroke-width="2" style="isolation:auto;mix-blend-mode:normal;text-decoration-color:#000000;text-decoration-line:none;text-decoration-style:solid;text-indent:0;text-transform:none;white-space:normal"/>
 </g>
</svg>
